<?xml version="1.0" encoding="UTF-8" standalone="no"?>
<svg
   xmlns:dc="http://purl.org/dc/elements/1.1/"
   xmlns:cc="http://creativecommons.org/ns#"
   xmlns:rdf="http://www.w3.org/1999/02/22-rdf-syntax-ns#"
   xmlns:svg="http://www.w3.org/2000/svg"
   xmlns="http://www.w3.org/2000/svg"
   xmlns:xlink="http://www.w3.org/1999/xlink"
   xmlns:sodipodi="http://sodipodi.sourceforge.net/DTD/sodipodi-0.dtd"
   xmlns:inkscape="http://www.inkscape.org/namespaces/inkscape"
   version="1.1"
   id="Layer_1"
   x="0px"
   y="0px"
   width="2850px"
   height="2005.158px"
   viewBox="0 0 2850 2005.158"
   enable-background="new 0 0 2850 2005.158"
   xml:space="preserve"
   sodipodi:docname="background.svg"
   inkscape:version="1.0beta2 (2b71d25, 2019-12-03)"><metadata
   id="metadata2500"><rdf:RDF><cc:Work
       rdf:about=""><dc:format>image/svg+xml</dc:format><dc:type
         rdf:resource="http://purl.org/dc/dcmitype/StillImage" /><dc:title></dc:title></cc:Work></rdf:RDF></metadata><defs
   id="defs2498"><linearGradient
   id="linearGradient4571"
   inkscape:collect="always"><stop
     style="stop-color:#c83737;stop-opacity:1"
     offset="0"
     id="stop4569" /><stop
     style="stop-color:#8d5fd3;stop-opacity:1"
     offset="1"
     id="stop4567" /></linearGradient>
	<defs
   id="defs1702">
		<rect
   height="2005.158"
   width="2850"
   y="0"
   id="SVGID_1_" />
	</defs>
	<clipPath
   id="SVGID_2_">
		<use
   id="use1704"
   overflow="visible"
   xlink:href="#SVGID_1_" />
	</clipPath>
	<linearGradient
   y2="-15.5726"
   x2="1425.0005"
   y1="1316.1826"
   x1="1425.0005"
   gradientUnits="userSpaceOnUse"
   id="SVGID_3_">
		<stop
   id="stop1707"
   style="stop-color:#D7E7F7"
   offset="0.168" />
		<stop
   id="stop1709"
   style="stop-color:#C2D9EC"
   offset="0.2743" />
		<stop
   id="stop1711"
   style="stop-color:#8BB3D0"
   offset="0.4943" />
		<stop
   id="stop1713"
   style="stop-color:#3478A2"
   offset="0.8064" />
		<stop
   id="stop1715"
   style="stop-color:#095B8C"
   offset="0.9534" />
	</linearGradient>
	
	
	
	
	
	
	<linearGradient
   y2="835.7563"
   x2="3223.8062"
   y1="1163.1455"
   x1="1477.7383"
   gradientUnits="userSpaceOnUse"
   id="SVGID_4_">
		<stop
   id="stop1922"
   style="stop-color:#D7E7F7"
   offset="0" />
		<stop
   id="stop1924"
   style="stop-color:#C2D4EB"
   offset="0.1797" />
		<stop
   id="stop1926"
   style="stop-color:#8BA4CC"
   offset="0.5515" />
		<stop
   id="stop1928"
   style="stop-color:#4A6AA6"
   offset="0.9529" />
	</linearGradient>
	
	
		<linearGradient
   gradientTransform="matrix(-1,0,0,1,174.2119,0)"
   y2="810.4198"
   x2="709.8762"
   y1="1224.5889"
   x1="-1499.0161"
   gradientUnits="userSpaceOnUse"
   id="SVGID_5_">
		<stop
   id="stop1933"
   style="stop-color:#D7E7F7"
   offset="0" />
		<stop
   id="stop1935"
   style="stop-color:#C2D4EB"
   offset="0.1797" />
		<stop
   id="stop1937"
   style="stop-color:#8BA4CC"
   offset="0.5515" />
		<stop
   id="stop1939"
   style="stop-color:#4A6AA6"
   offset="0.9529" />
	</linearGradient>
	
	<linearGradient
   y2="935.5133"
   x2="1357.3696"
   y1="972.271"
   x1="0.1616"
   gradientUnits="userSpaceOnUse"
   id="SVGID_6_">
		<stop
   id="stop1944"
   style="stop-color:#1C306B"
   offset="0.035" />
		<stop
   id="stop1946"
   style="stop-color:#1BA0D1"
   offset="0.7637" />
	</linearGradient>
	
	<linearGradient
   y2="970.4211"
   x2="1713.1964"
   y1="993.041"
   x1="2838.5586"
   gradientUnits="userSpaceOnUse"
   id="SVGID_7_">
		<stop
   id="stop1951"
   style="stop-color:#1C306B"
   offset="0.035" />
		<stop
   id="stop1953"
   style="stop-color:#2FA9D6"
   offset="0.7637" />
	</linearGradient>
	
	
	
	
	
	<linearGradient
   y2="1529.5114"
   x2="772.4088"
   y1="936.7568"
   x1="844.9043"
   gradientUnits="userSpaceOnUse"
   id="SVGID_20_">
		<stop
   id="stop2050"
   style="stop-color:#B3D3F8"
   offset="0.0446" />
		<stop
   id="stop2052"
   style="stop-color:#9EC9F0"
   offset="0.1896" />
		<stop
   id="stop2054"
   style="stop-color:#67AFDA"
   offset="0.49" />
		<stop
   id="stop2056"
   style="stop-color:#1087B8"
   offset="0.9169" />
		<stop
   id="stop2058"
   style="stop-color:#0F86B8"
   offset="0.9229" />
	</linearGradient>
	
	
	
	
	
	
	
	
	
	
	<linearGradient
   y2="1152.5426"
   x2="3874.8804"
   y1="1212.1982"
   x1="1672.21"
   gradientUnits="userSpaceOnUse"
   id="SVGID_21_">
		<stop
   id="stop2137"
   style="stop-color:#1C306B"
   offset="0.035" />
		<stop
   id="stop2139"
   style="stop-color:#1BA0D1"
   offset="0.7637" />
	</linearGradient>
	
	<linearGradient
   y2="1155.8379"
   x2="3966.8411"
   y1="1215.4961"
   x1="1764.0742"
   gradientUnits="userSpaceOnUse"
   id="SVGID_22_">
		<stop
   id="stop2144"
   style="stop-color:#1C306B"
   offset="0.035" />
		<stop
   id="stop2146"
   style="stop-color:#1BA0D1"
   offset="0.7637" />
	</linearGradient>
	
	<linearGradient
   y2="1127.7941"
   x2="4097.0293"
   y1="1195.0967"
   x1="1612.0068"
   gradientUnits="userSpaceOnUse"
   id="SVGID_23_">
		<stop
   id="stop2151"
   style="stop-color:#1C306B"
   offset="0.035" />
		<stop
   id="stop2153"
   style="stop-color:#1BA0D1"
   offset="0.7637" />
	</linearGradient>
	
	<linearGradient
   y2="1097.734"
   x2="5614.8677"
   y1="1214.5176"
   x1="1302.854"
   gradientUnits="userSpaceOnUse"
   id="SVGID_24_">
		<stop
   id="stop2158"
   style="stop-color:#1C306B"
   offset="0.055" />
		<stop
   id="stop2160"
   style="stop-color:#1C306B"
   offset="0.2984" />
	</linearGradient>
	
	<linearGradient
   y2="1162.6147"
   x2="4714.3481"
   y1="1242.6826"
   x1="1757.9951"
   gradientUnits="userSpaceOnUse"
   id="SVGID_25_">
		<stop
   id="stop2165"
   style="stop-color:#1C306B"
   offset="0.055" />
		<stop
   id="stop2167"
   style="stop-color:#1C306B"
   offset="0.2984" />
	</linearGradient>
	
	<linearGradient
   y2="1136.9524"
   x2="5035.5225"
   y1="1227.9238"
   x1="1676.5762"
   gradientUnits="userSpaceOnUse"
   id="SVGID_26_">
		<stop
   id="stop2172"
   style="stop-color:#1C306B"
   offset="0.055" />
		<stop
   id="stop2174"
   style="stop-color:#1C306B"
   offset="0.2984" />
	</linearGradient>
	
	
	<linearGradient
   y2="1171.62"
   x2="3854.5334"
   y1="1250.2471"
   x1="951.3789"
   gradientUnits="userSpaceOnUse"
   id="SVGID_27_">
		<stop
   id="stop2181"
   style="stop-color:#1B72A7"
   offset="0" />
		<stop
   id="stop2183"
   style="stop-color:#1BA0D1"
   offset="0.7637" />
	</linearGradient>
	
	<linearGradient
   y2="1163.1686"
   x2="3534.5649"
   y1="1226.6562"
   x1="1190.4038"
   gradientUnits="userSpaceOnUse"
   id="SVGID_28_">
		<stop
   id="stop2188"
   style="stop-color:#1B72A7"
   offset="0" />
		<stop
   id="stop2190"
   style="stop-color:#1BA0D1"
   offset="0.7637" />
	</linearGradient>
	
	
	
	
	<linearGradient
   y2="1970.033"
   x2="1450.9825"
   y1="1158.0928"
   x1="1387.0986"
   gradientUnits="userSpaceOnUse"
   id="SVGID_29_">
		<stop
   id="stop2225"
   style="stop-color:#B3D2FA"
   offset="0.2341" />
		<stop
   id="stop2227"
   style="stop-color:#82B7E4"
   offset="0.3956" />
		<stop
   id="stop2229"
   style="stop-color:#519CCD"
   offset="0.5774" />
		<stop
   id="stop2231"
   style="stop-color:#2E88BD"
   offset="0.7375" />
		<stop
   id="stop2233"
   style="stop-color:#187CB4"
   offset="0.868" />
		<stop
   id="stop2235"
   style="stop-color:#1078B0"
   offset="0.9525" />
	</linearGradient>
	
	<linearGradient
   y2="1737.7056"
   x2="2553.9023"
   y1="915.623"
   x1="2301.877"
   gradientUnits="userSpaceOnUse"
   id="SVGID_30_">
		<stop
   id="stop2240"
   style="stop-color:#FFFFFF"
   offset="0" />
		<stop
   id="stop2242"
   style="stop-color:#003599"
   offset="0.9996" />
	</linearGradient>
	
	<linearGradient
   y2="1867.7856"
   x2="2749.7468"
   y1="1055.9385"
   x1="2685.8701"
   gradientUnits="userSpaceOnUse"
   id="SVGID_31_">
		<stop
   id="stop2247"
   style="stop-color:#FFFFFF"
   offset="0" />
		<stop
   id="stop2249"
   style="stop-color:#000000"
   offset="1" />
	</linearGradient>
	
	<linearGradient
   y2="1943.5913"
   x2="1787.9139"
   y1="1131.9023"
   x1="1724.0498"
   gradientUnits="userSpaceOnUse"
   id="SVGID_32_">
		<stop
   id="stop2254"
   style="stop-color:#FFFFFF"
   offset="0" />
		<stop
   id="stop2256"
   style="stop-color:#003599"
   offset="0.9996" />
	</linearGradient>
	
	<linearGradient
   y2="2055.0532"
   x2="380.2291"
   y1="1243.3125"
   x1="316.3608"
   gradientUnits="userSpaceOnUse"
   id="SVGID_33_">
		<stop
   id="stop2261"
   style="stop-color:#FFFFFF"
   offset="0" />
		<stop
   id="stop2263"
   style="stop-color:#003599"
   offset="0.9996" />
	</linearGradient>
	
	
	
	
	
	
	
	
	<linearGradient
   y2="385.7207"
   x2="1058.9927"
   y1="385.7207"
   x1="894.2212"
   gradientUnits="userSpaceOnUse"
   id="SVGID_37_">
		<stop
   id="stop2307"
   style="stop-color:#FFFFFF"
   offset="0" />
		<stop
   id="stop2309"
   style="stop-color:#FFFFFF"
   offset="1" />
	</linearGradient>
	
	
	<linearGradient
   y2="329.3784"
   x2="1189.3584"
   y1="329.3784"
   x1="813.939"
   gradientUnits="userSpaceOnUse"
   id="SVGID_38_">
		<stop
   id="stop2316"
   style="stop-color:#FFFFFF"
   offset="0" />
		<stop
   id="stop2318"
   style="stop-color:#FFFFFF"
   offset="1" />
	</linearGradient>
	
	
	
	
	
	
	
	
	
	
	
	
	
	
	
	
	
	
	
	
	
	
	
<radialGradient
   r="1717.7386"
   fy="1229.2754"
   fx="1557.0592"
   cy="1229.2754"
   cx="1557.0592"
   gradientTransform="matrix(1,0,0,0.69487749,0,301.16514)"
   gradientUnits="userSpaceOnUse"
   id="radialGradient4575"
   xlink:href="#linearGradient4571"
   inkscape:collect="always" /></defs><sodipodi:namedview
   pagecolor="#ffffff"
   bordercolor="#666666"
   inkscape:document-rotation="0"
   borderopacity="1"
   objecttolerance="10"
   gridtolerance="10"
   guidetolerance="10"
   inkscape:pageopacity="0"
   inkscape:pageshadow="2"
   inkscape:window-width="1366"
   inkscape:window-height="702"
   id="namedview2496"
   showgrid="false"
   inkscape:zoom="0.12149074"
   inkscape:cx="1729.7523"
   inkscape:cy="1057.1664"
   inkscape:window-x="0"
   inkscape:window-y="25"
   inkscape:window-maximized="0"
   inkscape:current-layer="Layer_1" />
<rect
   x="0"
   style="fill:url(#SVGID_3_)"
   id="rect1718"
   height="2005.158"
   width="2850"
   fill="url(#SVGID_3_)"
   clip-path="url(#SVGID_2_)"
   y="0" /><path
   inkscape:connector-curvature="0"
   id="path1720"
   d="m 1517.467,-318.055 c -810.976,0 -1468.401,660.774 -1468.401,1475.881 0,815.107 657.425,1475.881 1468.401,1475.881 810.985,0 1468.41,-660.774 1468.41,-1475.881 0,-815.107 -657.425,-1475.881 -1468.41,-1475.881 z"
   fill="#FFFFFF"
   clip-path="url(#SVGID_2_)"
   opacity="0.1" /><path
   inkscape:connector-curvature="0"
   id="path1722"
   d="m 1517.469,234.436 c -507.39,0 -918.71,413.415 -918.71,923.39 0,509.975 411.32,923.39 918.71,923.39 507.396,0 918.717,-413.415 918.717,-923.39 0,-509.975 -411.321,-923.39 -918.717,-923.39 z"
   fill="#FFFFFF"
   clip-path="url(#SVGID_2_)"
   opacity="0.1" /><g
   id="g1916"
   clip-path="url(#SVGID_2_)">
		<polygon
   id="polygon1724"
   points="2376.084,390.812 2378.672,393.946 2376.225,397.22 2379.454,394.732 2382.601,397.079 2380.125,394.058 2382.46,390.671 2379.343,393.271 "
   fill="#FFFFFF"
   opacity="0.93" />
		<polygon
   id="polygon1726"
   points="2112.836,413.011 2114.342,416.168 2112.977,419.418 2114.797,416.961 2116.613,419.338 2115.173,416.294 2116.473,412.93 2114.719,415.5 "
   fill="#FFFFFF"
   opacity="0.93" />
		<polygon
   id="polygon1728"
   points="2307.242,208.749 2309.829,211.881 2307.383,215.156 2310.612,212.668 2313.758,215.014 2311.283,211.994 2313.617,208.607 2310.5,211.207 "
   fill="#FFFFFF"
   opacity="0.93" />
		<polygon
   id="polygon1730"
   points="1237.32,828.986 1239.907,832.12 1237.461,835.394 1240.69,832.907 1243.836,835.253 1241.361,832.232 1243.696,828.845 1240.578,831.445 "
   fill="#FFFFFF"
   opacity="0.93" />
		<polygon
   id="polygon1732"
   points="1888.766,819.212 1893.728,825.223 1889.035,831.505 1895.229,826.732 1901.266,831.233 1896.518,825.438 1900.995,818.941 1895.015,823.928 "
   fill="#FFFFFF"
   opacity="0.93" />
		<polygon
   id="polygon1734"
   points="1682.938,865.42 1685.524,868.553 1683.078,871.828 1686.308,869.34 1689.453,871.687 1686.979,868.666 1689.312,865.279 1686.195,867.879 "
   fill="#FFFFFF"
   opacity="0.93" />
		<polygon
   id="polygon1736"
   points="1912.639,518.097 1915.227,521.23 1912.78,524.505 1916.01,522.017 1919.155,524.363 1916.68,521.343 1919.015,517.956 1915.897,520.556 "
   fill="#FFFFFF"
   opacity="0.93" />
		<polygon
   id="polygon1738"
   points="2283.531,735.228 2287.4,739.915 2283.741,744.814 2288.572,741.093 2293.279,744.602 2289.576,740.083 2293.067,735.016 2288.405,738.906 "
   fill="#FFFFFF"
   opacity="0.93" />
		<polygon
   id="polygon1740"
   points="681.854,698.75 684.441,701.884 681.995,705.158 685.224,702.67 688.37,705.016 685.895,701.996 688.229,698.609 685.112,701.208 "
   fill="#FFFFFF"
   opacity="0.93" />
		<polygon
   id="polygon1742"
   points="1385.201,388.782 1387.788,391.915 1385.341,395.189 1388.571,392.702 1391.717,395.048 1389.242,392.027 1391.576,388.64 1388.458,391.241 "
   fill="#FFFFFF"
   opacity="0.93" />
		<polygon
   id="polygon1744"
   points="1582.48,427.568 1579.363,430.169 1576.104,427.71 1578.58,430.956 1576.246,434.118 1579.251,431.63 1582.621,433.977 1580.034,430.843 "
   fill="#FFFFFF"
   opacity="0.93" />
		<polygon
   id="polygon1746"
   points="2541.634,621.476 2538.516,624.076 2535.258,621.618 2537.733,624.862 2535.398,628.025 2538.404,625.537 2541.774,627.883 2539.188,624.75 "
   fill="#FFFFFF"
   opacity="0.93" />
		<polygon
   id="polygon1748"
   points="2749.077,554.237 2745.959,556.837 2742.701,554.379 2745.177,557.624 2742.842,560.786 2745.848,558.299 2749.218,560.645 2746.631,557.512 "
   fill="#FFFFFF"
   opacity="0.93" />
		<polygon
   id="polygon1750"
   points="159.422,701.883 156.305,704.483 153.047,702.025 155.522,705.27 153.188,708.432 156.193,705.944 159.563,708.291 156.976,705.158 "
   fill="#FFFFFF"
   opacity="0.93" />
		<polygon
   id="polygon1752"
   points="183.733,890.288 180.616,892.888 177.358,890.43 179.833,893.675 177.499,896.837 180.504,894.35 183.874,896.696 181.287,893.562 "
   fill="#FFFFFF"
   opacity="0.93" />
		<polygon
   id="polygon1754"
   points="421.741,973.66 418.624,976.26 415.365,973.802 417.841,977.047 415.506,980.209 418.512,977.722 421.882,980.068 419.294,976.935 "
   fill="#FFFFFF"
   opacity="0.93" />
		<polygon
   id="polygon1756"
   points="357.572,689.675 354.455,692.274 351.197,689.816 353.672,693.062 351.338,696.224 354.343,693.736 357.713,696.082 355.126,692.949 "
   fill="#FFFFFF"
   opacity="0.93" />
		<polygon
   id="polygon1758"
   points="404.038,713.192 400.92,715.792 397.663,713.334 400.138,716.58 397.803,719.742 400.809,717.254 404.179,719.6 401.592,716.467 "
   fill="#FFFFFF"
   opacity="0.93" />
		<polygon
   id="polygon1760"
   points="574.664,574.086 571.547,576.687 568.289,574.228 570.764,577.473 568.429,580.635 571.435,578.147 574.805,580.494 572.218,577.361 "
   fill="#FFFFFF"
   opacity="0.93" />
		<polygon
   id="polygon1762"
   points="1556.674,928.826 1553.557,931.426 1550.3,928.967 1552.773,932.213 1550.44,935.375 1553.445,932.888 1556.814,935.234 1554.229,932.101 "
   fill="#FFFFFF"
   opacity="0.93" />
		<polygon
   id="polygon1764"
   points="2782.796,895.778 2779.678,898.379 2776.42,895.92 2778.896,899.166 2776.561,902.328 2779.566,899.84 2782.937,902.187 2780.35,899.053 "
   fill="#FFFFFF"
   opacity="0.93" />
		<polygon
   id="polygon1766"
   points="2686.857,762.431 2683.74,765.03 2680.481,762.572 2682.957,765.817 2680.622,768.979 2683.628,766.492 2686.998,768.838 2684.41,765.706 "
   fill="#FFFFFF"
   opacity="0.93" />
		<polygon
   id="polygon1768"
   points="2724.91,736.641 2721.794,739.241 2718.535,736.782 2721.011,740.028 2718.677,743.19 2721.682,740.702 2725.051,743.048 2722.465,739.915 "
   fill="#FFFFFF"
   opacity="0.93" />
		<polygon
   id="polygon1770"
   points="2500.993,892.504 2497.876,895.104 2494.617,892.646 2497.093,895.891 2494.758,899.053 2497.764,896.565 2501.134,898.912 2498.547,895.778 "
   fill="#FFFFFF"
   opacity="0.93" />
		<polygon
   id="polygon1772"
   points="2346.403,970.385 2343.286,972.985 2340.027,970.527 2342.503,973.772 2340.168,976.935 2343.174,974.447 2346.544,976.793 2343.957,973.66 "
   fill="#FFFFFF"
   opacity="0.93" />
		<polygon
   id="polygon1774"
   points="2087.375,918.758 2084.258,921.358 2081,918.899 2083.475,922.145 2081.141,925.307 2084.146,922.819 2087.516,925.166 2084.929,922.033 "
   fill="#FFFFFF"
   opacity="0.93" />
		<polygon
   id="polygon1776"
   points="2212.169,539.594 2209.052,542.195 2205.794,539.736 2208.27,542.982 2205.935,546.144 2208.94,543.656 2212.311,546.001 2209.724,542.869 "
   fill="#FFFFFF"
   opacity="0.93" />
		<polygon
   id="polygon1778"
   points="2263.638,563.979 2260.521,566.578 2257.263,564.12 2259.737,567.365 2257.403,570.527 2260.408,568.041 2263.778,570.386 2261.191,567.253 "
   fill="#FFFFFF"
   opacity="0.93" />
		<polygon
   id="polygon1780"
   points="2077.742,634.756 2074.626,637.355 2071.368,634.897 2073.842,638.142 2071.509,641.304 2074.514,638.817 2077.883,641.163 2075.297,638.03 "
   fill="#FFFFFF"
   opacity="0.93" />
		<polygon
   id="polygon1782"
   points="1861.601,340.438 1858.483,343.038 1855.227,340.579 1857.701,343.825 1855.367,346.987 1858.372,344.499 1861.742,346.845 1859.155,343.712 "
   fill="#FFFFFF"
   opacity="0.93" />
		<polygon
   id="polygon1784"
   points="2180.732,258.094 2177.615,260.694 2174.357,258.235 2176.832,261.481 2174.499,264.643 2177.503,262.155 2180.873,264.502 2178.287,261.369 "
   fill="#FFFFFF"
   opacity="0.93" />
		<polygon
   id="polygon1786"
   points="864.611,889.011 868.48,893.697 864.821,898.596 869.652,894.875 874.359,898.385 870.656,893.866 874.147,888.798 869.485,892.689 "
   fill="#FFFFFF"
   opacity="0.93" />
		<polygon
   id="polygon1788"
   points="1791.088,647.113 1794.957,651.8 1791.299,656.699 1796.129,652.978 1800.836,656.487 1797.133,651.968 1800.625,646.901 1795.962,650.791 "
   fill="#FFFFFF"
   opacity="0.93" />
		<polygon
   id="polygon1790"
   points="1123.575,281.537 1126.162,284.67 1123.716,287.944 1126.944,285.457 1130.091,287.802 1127.616,284.782 1129.95,281.396 1126.833,283.995 "
   fill="#FFFFFF"
   opacity="0.93" />
		<polygon
   id="polygon1792"
   points="860.326,303.734 861.832,306.892 860.467,310.143 862.287,307.686 864.104,310.062 862.663,307.018 863.963,303.654 862.208,306.224 "
   fill="#FFFFFF"
   opacity="0.93" />
		<polygon
   id="polygon1794"
   points="1054.733,99.472 1057.319,102.605 1054.874,105.88 1058.103,103.393 1061.249,105.739 1058.774,102.718 1061.107,99.331 1057.99,101.931 "
   fill="#FFFFFF"
   opacity="0.93" />
		<polygon
   id="polygon1796"
   points="636.255,709.936 641.218,715.947 636.526,722.229 642.72,717.456 648.756,721.958 644.007,716.163 648.485,709.664 642.506,714.653 "
   fill="#FFFFFF"
   opacity="0.93" />
		<polygon
   id="polygon1798"
   points="430.428,756.145 433.015,759.277 430.568,762.552 433.798,760.064 436.944,762.41 434.469,759.39 436.803,756.003 433.686,758.603 "
   fill="#FFFFFF"
   opacity="0.93" />
		<polygon
   id="polygon1800"
   points="660.129,408.821 662.716,411.954 660.271,415.229 663.5,412.741 666.646,415.087 664.17,412.066 666.505,408.68 663.388,411.279 "
   fill="#FFFFFF"
   opacity="0.93" />
		<polygon
   id="polygon1802"
   points="1031.021,625.952 1034.892,630.639 1031.232,635.538 1036.062,631.816 1040.769,635.326 1037.066,630.808 1040.559,625.74 1035.895,629.63 "
   fill="#FFFFFF"
   opacity="0.93" />
		<polygon
   id="polygon1804"
   points="1289.124,512.2 1286.006,514.8 1282.749,512.341 1285.224,515.587 1282.89,518.749 1285.895,516.261 1289.265,518.607 1286.678,515.475 "
   fill="#FFFFFF"
   opacity="0.93" />
		<polygon
   id="polygon1806"
   points="1496.567,444.961 1493.45,447.561 1490.191,445.103 1492.667,448.348 1490.332,451.51 1493.338,449.022 1496.708,451.369 1494.121,448.236 "
   fill="#FFFFFF"
   opacity="0.93" />
		<polygon
   id="polygon1808"
   points="1530.286,786.502 1527.169,789.103 1523.911,786.644 1526.386,789.889 1524.052,793.052 1527.058,790.564 1530.427,792.91 1527.84,789.777 "
   fill="#FFFFFF"
   opacity="0.93" />
		<polygon
   id="polygon1810"
   points="1434.348,653.154 1431.23,655.754 1427.972,653.296 1430.447,656.542 1428.112,659.704 1431.118,657.216 1434.488,659.562 1431.9,656.429 "
   fill="#FFFFFF"
   opacity="0.93" />
		<polygon
   id="polygon1812"
   points="1472.401,627.364 1469.284,629.964 1466.026,627.506 1468.501,630.751 1466.167,633.914 1469.172,631.426 1472.542,633.772 1469.955,630.639 "
   fill="#FFFFFF"
   opacity="0.93" />
		<polygon
   id="polygon1814"
   points="1248.483,783.228 1245.366,785.828 1242.108,783.37 1244.583,786.615 1242.249,789.777 1245.254,787.289 1248.624,789.635 1246.037,786.502 "
   fill="#FFFFFF"
   opacity="0.93" />
		<polygon
   id="polygon1816"
   points="1093.894,861.11 1090.776,863.709 1087.519,861.251 1089.993,864.496 1087.659,867.658 1090.664,865.171 1094.034,867.517 1091.448,864.384 "
   fill="#FFFFFF"
   opacity="0.93" />
		<polygon
   id="polygon1818"
   points="834.865,809.482 831.748,812.082 828.49,809.624 830.965,812.869 828.63,816.031 831.636,813.544 835.006,815.889 832.419,812.757 "
   fill="#FFFFFF"
   opacity="0.93" />
		<polygon
   id="polygon1820"
   points="959.66,430.318 956.543,432.918 953.285,430.459 955.759,433.706 953.426,436.868 956.431,434.38 959.8,436.726 957.214,433.593 "
   fill="#FFFFFF"
   opacity="0.93" />
		<polygon
   id="polygon1822"
   points="1011.128,454.702 1008.011,457.303 1004.753,454.844 1007.228,458.09 1004.894,461.252 1007.899,458.764 1011.269,461.11 1008.683,457.977 "
   fill="#FFFFFF"
   opacity="0.93" />
		<polygon
   id="polygon1824"
   points="825.233,525.479 822.116,528.08 818.858,525.621 821.333,528.867 818.999,532.029 822.004,529.541 825.374,531.887 822.787,528.754 "
   fill="#FFFFFF"
   opacity="0.93" />
		<polygon
   id="polygon1826"
   points="609.092,231.161 605.975,233.761 602.716,231.304 605.191,234.548 602.857,237.71 605.863,235.223 609.233,237.569 606.646,234.436 "
   fill="#FFFFFF"
   opacity="0.93" />
		<polygon
   id="polygon1828"
   points="928.224,148.818 925.106,151.418 921.848,148.96 924.323,152.205 921.989,155.367 924.994,152.879 928.363,155.225 925.777,152.092 "
   fill="#FFFFFF"
   opacity="0.93" />
		<polygon
   id="polygon1830"
   points="538.578,537.837 542.448,542.524 538.789,547.423 543.62,543.701 548.326,547.21 544.624,542.692 548.116,537.625 543.452,541.515 "
   fill="#FFFFFF"
   opacity="0.93" />
		<polygon
   id="polygon1832"
   points="763.486,243.003 766.072,246.136 763.626,249.41 766.855,246.923 770.001,249.269 767.527,246.248 769.86,242.862 766.743,245.461 "
   fill="#FFFFFF"
   opacity="0.93" />
		<polygon
   id="polygon1834"
   points="500.237,265.201 501.743,268.358 500.378,271.609 502.197,269.152 504.015,271.528 502.574,268.484 503.875,265.12 502.119,267.69 "
   fill="#FFFFFF"
   opacity="0.93" />
		<polygon
   id="polygon1836"
   points="694.644,60.939 697.23,64.072 694.785,67.347 698.014,64.859 701.159,67.204 698.685,64.185 701.018,60.797 697.902,63.397 "
   fill="#FFFFFF"
   opacity="0.93" />
		<polygon
   id="polygon1838"
   points="276.166,671.403 281.129,677.413 276.437,683.695 282.63,678.922 288.667,683.423 283.918,677.628 288.396,671.131 282.417,676.119 "
   fill="#FFFFFF"
   opacity="0.93" />
		<polygon
   id="polygon1840"
   points="70.338,717.61 72.926,720.744 70.479,724.018 73.708,721.53 76.854,723.876 74.379,720.856 76.714,717.469 73.597,720.069 "
   fill="#FFFFFF"
   opacity="0.93" />
		<polygon
   id="polygon1842"
   points="300.04,370.287 302.627,373.42 300.182,376.695 303.41,374.207 306.556,376.553 304.081,373.533 306.416,370.146 303.298,372.746 "
   fill="#FFFFFF"
   opacity="0.93" />
		<polygon
   id="polygon1844"
   points="670.932,587.418 674.802,592.105 671.143,597.004 675.973,593.283 680.68,596.792 676.977,592.274 680.47,587.206 675.806,591.097 "
   fill="#FFFFFF"
   opacity="0.93" />
		<polygon
   id="polygon1846"
   points="929.034,473.666 925.917,476.266 922.66,473.808 925.134,477.053 922.801,480.215 925.806,477.728 929.175,480.073 926.589,476.941 "
   fill="#FFFFFF"
   opacity="0.93" />
		<polygon
   id="polygon1848"
   points="1136.478,406.427 1133.36,409.028 1130.103,406.569 1132.578,409.814 1130.243,412.977 1133.249,410.489 1136.619,412.835 1134.032,409.702 "
   fill="#FFFFFF"
   opacity="0.93" />
		<polygon
   id="polygon1850"
   points="1170.197,747.969 1167.08,750.569 1163.822,748.11 1166.296,751.356 1163.963,754.518 1166.968,752.03 1170.337,754.376 1167.751,751.243 "
   fill="#FFFFFF"
   opacity="0.93" />
		<polygon
   id="polygon1852"
   points="1074.258,614.621 1071.141,617.221 1067.883,614.762 1070.357,618.008 1068.023,621.17 1071.029,618.682 1074.399,621.028 1071.812,617.896 "
   fill="#FFFFFF"
   opacity="0.93" />
		<polygon
   id="polygon1854"
   points="1112.312,588.831 1109.195,591.431 1105.937,588.972 1108.412,592.218 1106.078,595.38 1109.083,592.892 1112.453,595.238 1109.866,592.105 "
   fill="#FFFFFF"
   opacity="0.93" />
		<polygon
   id="polygon1856"
   points="888.394,744.694 885.276,747.294 882.019,744.835 884.494,748.081 882.159,751.243 885.165,748.755 888.535,751.102 885.948,747.969 "
   fill="#FFFFFF"
   opacity="0.93" />
		<polygon
   id="polygon1858"
   points="733.804,822.576 730.687,825.176 727.429,822.718 729.904,825.962 727.57,829.125 730.575,826.637 733.945,828.983 731.358,825.85 "
   fill="#FFFFFF"
   opacity="0.93" />
		<polygon
   id="polygon1860"
   points="474.776,770.949 471.659,773.548 468.4,771.09 470.875,774.335 468.542,777.497 471.547,775.009 474.917,777.356 472.33,774.223 "
   fill="#FFFFFF"
   opacity="0.93" />
		<polygon
   id="polygon1862"
   points="599.57,391.785 596.454,394.385 593.196,391.926 595.671,395.172 593.336,398.334 596.342,395.846 599.711,398.192 597.125,395.059 "
   fill="#FFFFFF"
   opacity="0.93" />
		<polygon
   id="polygon1864"
   points="651.039,416.169 647.922,418.769 644.664,416.311 647.138,419.556 644.805,422.718 647.81,420.23 651.18,422.577 648.593,419.443 "
   fill="#FFFFFF"
   opacity="0.93" />
		<polygon
   id="polygon1866"
   points="465.144,486.946 462.027,489.546 458.769,487.087 461.244,490.333 458.91,493.495 461.915,491.007 465.285,493.354 462.698,490.22 "
   fill="#FFFFFF"
   opacity="0.93" />
		<polygon
   id="polygon1868"
   points="249.002,192.627 245.885,195.228 242.627,192.769 245.103,196.015 242.768,199.177 245.773,196.689 249.144,199.036 246.556,195.902 "
   fill="#FFFFFF"
   opacity="0.93" />
		<polygon
   id="polygon1870"
   points="568.134,110.284 565.017,112.884 561.759,110.426 564.234,113.671 561.899,116.833 564.905,114.346 568.275,116.691 565.688,113.559 "
   fill="#FFFFFF"
   opacity="0.93" />
		<polygon
   id="polygon1872"
   points="178.488,499.303 182.359,503.99 178.7,508.889 183.53,505.168 188.237,508.677 184.534,504.158 188.026,499.091 183.363,502.981 "
   fill="#FFFFFF"
   opacity="0.93" />
		<polygon
   id="polygon1874"
   points="1652.814,617.186 1650.228,614.054 1652.674,610.779 1649.444,613.267 1646.299,610.92 1648.773,613.941 1646.439,617.328 1649.557,614.728 "
   fill="#FFFFFF"
   opacity="0.93" />
		<polygon
   id="polygon1876"
   points="1916.062,594.989 1914.557,591.832 1915.922,588.581 1914.103,591.037 1912.285,588.662 1913.726,591.705 1912.426,595.069 1914.181,592.5 "
   fill="#FFFFFF"
   opacity="0.93" />
		<polygon
   id="polygon1878"
   points="1721.656,799.25 1719.069,796.117 1721.516,792.844 1718.287,795.331 1715.141,792.985 1717.615,796.006 1715.281,799.392 1718.398,796.792 "
   fill="#FFFFFF"
   opacity="0.93" />
		<polygon
   id="polygon1880"
   points="2140.134,188.788 2135.171,182.777 2139.864,176.494 2133.669,181.267 2127.633,176.767 2132.382,182.561 2127.903,189.059 2133.884,184.071 "
   fill="#FFFFFF"
   opacity="0.93" />
		<polygon
   id="polygon1882"
   points="2345.961,142.579 2343.374,139.446 2345.82,136.171 2342.591,138.659 2339.444,136.312 2341.92,139.333 2339.586,142.721 2342.703,140.12 "
   fill="#FFFFFF"
   opacity="0.93" />
		<polygon
   id="polygon1884"
   points="2116.26,489.902 2113.673,486.769 2116.119,483.495 2112.89,485.982 2109.743,483.636 2112.219,486.657 2109.884,490.044 2113.002,487.444 "
   fill="#FFFFFF"
   opacity="0.93" />
		<polygon
   id="polygon1886"
   points="1745.368,272.771 1741.498,268.084 1745.157,263.186 1740.327,266.907 1735.62,263.397 1739.322,267.916 1735.831,272.983 1740.494,269.094 "
   fill="#FFFFFF"
   opacity="0.93" />
		<polygon
   id="polygon1888"
   points="1487.266,386.523 1490.383,383.924 1493.641,386.382 1491.166,383.137 1493.5,379.975 1490.494,382.461 1487.124,380.116 1489.712,383.25 "
   fill="#FFFFFF"
   opacity="0.93" />
		<polygon
   id="polygon1890"
   points="1279.822,453.762 1282.939,451.163 1286.197,453.621 1283.722,450.375 1286.057,447.213 1283.051,449.7 1279.681,447.355 1282.268,450.487 "
   fill="#FFFFFF"
   opacity="0.93" />
		<polygon
   id="polygon1892"
   points="1246.103,112.221 1249.22,109.621 1252.479,112.079 1250.003,108.833 1252.338,105.671 1249.332,108.159 1245.962,105.813 1248.549,108.946 "
   fill="#FFFFFF"
   opacity="0.93" />
		<polygon
   id="polygon1894"
   points="1342.042,245.569 1345.159,242.969 1348.417,245.427 1345.942,242.182 1348.276,239.02 1345.271,241.507 1341.901,239.162 1344.488,242.294 "
   fill="#FFFFFF"
   opacity="0.93" />
		<polygon
   id="polygon1896"
   points="1303.987,271.359 1307.105,268.759 1310.363,271.217 1307.888,267.972 1310.222,264.81 1307.217,267.297 1303.847,264.951 1306.434,268.084 "
   fill="#FFFFFF"
   opacity="0.93" />
		<polygon
   id="polygon1898"
   points="1527.905,115.496 1531.023,112.895 1534.281,115.354 1531.806,112.108 1534.141,108.946 1531.135,111.434 1527.765,109.088 1530.352,112.221 "
   fill="#FFFFFF"
   opacity="0.93" />
		<polygon
   id="polygon1900"
   points="1682.496,37.614 1685.613,35.014 1688.871,37.473 1686.396,34.227 1688.73,31.064 1685.725,33.552 1682.354,31.206 1684.942,34.339 "
   fill="#FFFFFF"
   opacity="0.93" />
		<polygon
   id="polygon1902"
   points="1941.523,89.241 1944.641,86.641 1947.899,89.1 1945.424,85.854 1947.759,82.692 1944.753,85.18 1941.383,82.833 1943.97,85.967 "
   fill="#FFFFFF"
   opacity="0.93" />
		<polygon
   id="polygon1904"
   points="1816.729,468.405 1819.847,465.805 1823.104,468.263 1820.63,465.018 1822.964,461.855 1819.959,464.343 1816.589,461.997 1819.175,465.13 "
   fill="#FFFFFF"
   opacity="0.93" />
		<polygon
   id="polygon1906"
   points="1765.261,444.021 1768.379,441.421 1771.637,443.879 1769.161,440.634 1771.496,437.472 1768.49,439.959 1765.12,437.613 1767.707,440.746 "
   fill="#FFFFFF"
   opacity="0.93" />
		<polygon
   id="polygon1908"
   points="1951.156,373.244 1954.272,370.643 1957.531,373.102 1955.056,369.856 1957.391,366.694 1954.385,369.182 1951.016,366.836 1953.602,369.969 "
   fill="#FFFFFF"
   opacity="0.93" />
		<polygon
   id="polygon1910"
   points="2167.298,667.562 2170.415,664.961 2173.672,667.42 2171.198,664.174 2173.531,661.012 2170.526,663.5 2167.157,661.154 2169.743,664.287 "
   fill="#FFFFFF"
   opacity="0.93" />
		<polygon
   id="polygon1912"
   points="1848.166,749.906 1851.283,747.305 1854.541,749.764 1852.066,746.519 1854.4,743.356 1851.395,745.844 1848.025,743.498 1850.611,746.631 "
   fill="#FFFFFF"
   opacity="0.93" />
		<polygon
   id="polygon1914"
   points="2237.812,360.886 2233.941,356.199 2237.6,351.3 2232.77,355.021 2228.063,351.513 2231.766,356.031 2228.273,361.098 2232.938,357.208 "
   fill="#FFFFFF"
   opacity="0.93" />
	</g><path
   inkscape:connector-curvature="0"
   id="path1918"
   d="m 1517.47,667.37 c -269.498,0 -487.97,219.584 -487.97,490.456 0,270.871 218.472,490.455 487.97,490.455 269.502,0 487.974,-219.584 487.974,-490.455 C 2005.443,886.955 1786.972,667.37 1517.47,667.37 Z"
   fill="#FFFFFF"
   clip-path="url(#SVGID_2_)"
   opacity="0.1" /><ellipse
   id="ellipse1920"
   ry="251.686"
   rx="250.41"
   cy="1157.826"
   cx="1534.436"
   fill="#FFFFFF"
   clip-path="url(#SVGID_2_)"
   opacity="0.4" /><path
   inkscape:connector-curvature="0"
   style="fill:url(#SVGID_4_)"
   id="path1931"
   d="m 2850.002,847.791 c -5.567,-4.208 -62.824,-126.328 -67.065,-130.298 -4.241,-3.971 -57.982,-120.489 -57.982,-120.489 l -119.766,-64.886 -261.902,278.641 -82.219,-121.995 -55.133,-42.649 -72.051,153.497 -124.798,35.938 -116.142,86.421 -37.718,108.01 -81.96,252.291 1076.734,43.203"
   fill="url(#SVGID_4_)"
   clip-path="url(#SVGID_2_)" /><path
   inkscape:connector-curvature="0"
   style="fill:url(#SVGID_5_)"
   id="path1942"
   d="m 286.785,1410.731 1049.022,-43.204 -87.361,-252.29 -66.641,-196.479 -58.089,-39.998 -91.212,50.066 17.599,-43.958 L 927.973,702.301 817.69,714.563 747.376,828.845 584.467,617.076 420.073,682.261 c 0,0 -57.283,116.518 -61.804,120.488 l -87.763,-287.275 -63.281,48.504 c 0,0 -27.854,89.951 -31.309,87.821 C 167.995,646.916 74.975,587.206 74.975,587.206 L 0.003,677.413"
   fill="url(#SVGID_5_)"
   clip-path="url(#SVGID_2_)" /><path
   inkscape:connector-curvature="0"
   style="fill:url(#SVGID_6_)"
   id="path1949"
   d="m 1007.466,1229.071 c 6.337,48.327 12.201,96.687 17.803,145.069 L 0.003,1403.367 0.001,631.996 l 43.092,74.6 69.98,-44.76 126.623,92.714 15.424,-92.714 79.61,-129.718 219.134,324.689 80.358,-74.572 105.772,110.084 123.595,-137.769 167.713,154.886 29.934,93.144 h 50.439 l 190.234,282.444"
   fill="url(#SVGID_6_)"
   clip-path="url(#SVGID_2_)" /><path
   inkscape:connector-curvature="0"
   style="fill:url(#SVGID_7_)"
   id="path1956"
   d="m 2180.873,822.576 41.479,-32.799 90.787,100.173 114.938,-122.095 111.346,-235.738 101.826,68.838 208.754,267.598 c -12.434,62.289 7.769,498.211 0,559.124 -11.224,87.999 -189.419,-146.061 -201.031,-58.115 -6.904,52.301 6.082,-52.359 0,0 l -796.558,-22.706 -29.308,-97.202 118.279,-261.606 146.133,-232.044 z"
   fill="url(#SVGID_7_)"
   clip-path="url(#SVGID_2_)" /><polyline
   id="polyline1958"
   points="2539.421,532.118 2505.758,788.223 2561.677,1069.985    2460.602,1280.161 2313.139,889.95 2428.076,767.855  "
   fill="#FFFFFF"
   clip-path="url(#SVGID_2_)"
   opacity="0.12" /><polyline
   id="polyline1960"
   points="335.128,532.118 363.42,747.359 437.528,783.327    314.908,828.601 298.981,897.003 430.46,939.631 368.254,945.315 371.083,1043.361 315.946,1236.148 530.296,1280.161    620.338,957.421  "
   fill="#FFFFFF"
   clip-path="url(#SVGID_2_)"
   opacity="0.12" /><polyline
   id="polyline1962"
   points="1301.91,1285.024 1043.08,1385.917 840.395,1296.665    931.949,927.829 863.589,754.55 1031.303,909.437 1061.236,1002.58 1111.676,1002.58  "
   fill="#FFFFFF"
   clip-path="url(#SVGID_2_)"
   opacity="0.12" /><path
   inkscape:connector-curvature="0"
   style="fill:url(#SVGID_20_)"
   id="path2061"
   d="m 1589.255,1302.34 c 0,0 -911.335,-244.037 -1589.255,0 v 359.135 l 1576.272,-161.988"
   fill="url(#SVGID_20_)"
   clip-path="url(#SVGID_2_)" /><path
   inkscape:connector-curvature="0"
   id="path2063"
   d="m 382.253,1213.777 c -130.529,16.565 -260.178,44.618 -382.252,88.562 v 295.391 c 77.68,-181.618 218.542,-297.935 382.252,-383.953 z"
   fill="#36649F"
   clip-path="url(#SVGID_2_)"
   opacity="0.1" /><path
   inkscape:connector-curvature="0"
   id="path2065"
   d="m 1191.042,1227.368 c -103.629,5.131 -208.855,5.154 -310.673,24.192 -267.687,66.496 -514.831,182.566 -708.195,386.19 -2.336,2.461 -4.719,4.698 -7.137,6.763 l 1411.235,-145.027 12.982,-197.146 c 0,0 -161.109,-43.116 -398.212,-74.972 z"
   fill="#36649F"
   clip-path="url(#SVGID_2_)"
   opacity="0.1" /><polyline
   id="polyline2179"
   points="2087.516,756.003 2055.563,875.867 2087.375,918.758    2019.513,958.104 2127.633,1046.569 2057.684,1236.267 1819.216,1258.254 1941.383,988.047  "
   fill="#FFFFFF"
   clip-path="url(#SVGID_2_)"
   opacity="0.12" /><path
   inkscape:connector-curvature="0"
   style="fill:url(#SVGID_29_)"
   id="path2238"
   d="m 2850,1274.456 c 0,0 -669.32,-188.467 -1425,79.654 C 828.615,1565.712 0,1571.929 0,1571.929 v 433.229 h 2850"
   fill="url(#SVGID_29_)"
   clip-path="url(#SVGID_2_)" /><path
   inkscape:connector-curvature="0"
   style="fill:url(#SVGID_30_)"
   id="path2245"
   d="m 2850,1440.779 v -166.323 c 0,0 -379.74,-106.838 -890.043,-45.054 303.947,22.108 603.507,100.604 890.043,211.377 z"
   fill="url(#SVGID_30_)"
   clip-path="url(#SVGID_2_)"
   opacity="0.3" /><path
   inkscape:connector-curvature="0"
   style="fill:url(#SVGID_31_)"
   id="path2252"
   d="m 2850,1847.107 v -70.392 c -73.723,-33.28 -147.924,-65.466 -222.46,-96.865 76.284,52.853 150.495,108.637 222.46,167.257 z"
   fill="url(#SVGID_31_)"
   clip-path="url(#SVGID_2_)"
   opacity="0.16" /><path
   inkscape:connector-curvature="0"
   style="fill:url(#SVGID_32_)"
   id="path2259"
   d="m 2790.513,2005.158 c -161.445,-135.68 -335.626,-255.284 -519.335,-359.267 -124.167,-70.28 -252.004,-133.39 -383.726,-188.08 -101.354,-42.082 -206.869,-81.611 -315.067,-104.89 -14.933,-0.684 -29.884,-1.114 -44.856,-1.215 -18.628,-0.124 -33.831,-5.516 -45.766,-14.156 -2.075,-0.249 -4.158,-0.416 -6.233,-0.65 -16.801,5.534 -33.633,11.214 -50.528,17.209 -209.687,74.398 -447.992,123.328 -668.98,155.601 136.717,99.979 262.918,214.637 370.434,346 27.737,33.89 33.269,81.104 0,114.544 -28.673,28.818 -86.294,33.805 -113.962,0 -4.559,-5.57 -9.241,-11.025 -13.864,-16.536 1.463,19.457 -5.403,37.284 -17.256,51.44 z"
   fill="url(#SVGID_32_)"
   clip-path="url(#SVGID_2_)"
   opacity="0.2" /><path
   inkscape:connector-curvature="0"
   style="fill:url(#SVGID_33_)"
   id="path2266"
   d="m 563.352,1698.602 c 8.707,35.182 -15.026,128.76 23.983,113.276 40.636,-16.13 -10.23,86.911 -56.282,99.633 -38.402,10.606 -51.529,-4.253 -59.394,-47.313 C 447.383,1731.28 421.882,1671.03 353.806,1554.353 143.427,1570.837 0.001,1571.928 0.001,1571.928 v 433.23 H 752.606 C 700.937,1886.568 640.384,1754.003 563.352,1698.602 Z"
   fill="url(#SVGID_33_)"
   clip-path="url(#SVGID_2_)"
   opacity="0.9" /><g
   id="g2275"
   clip-path="url(#SVGID_2_)"
   opacity="0.4">
		<linearGradient
   y2="1988.9084"
   x2="1900.4757"
   y1="1392.834"
   x1="1129.084"
   gradientUnits="userSpaceOnUse"
   id="SVGID_34_">
			<stop
   id="stop2268"
   style="stop-color:#5C77A2"
   offset="0" />
			<stop
   id="stop2270"
   style="stop-color:#173E7D"
   offset="1" />
		</linearGradient>
		<path
   inkscape:connector-curvature="0"
   style="fill:url(#SVGID_34_)"
   id="path2273"
   d="M 1561.458,1904.457 1245.69,1684.408 c -1.279,-0.891 -1.075,-1.871 0.453,-2.179 l 206.504,-41.511 c 1.528,-0.308 1.589,-1.017 0.134,-1.576 l -445.362,-171.258 c -1.455,-0.56 -1.398,-1.285 0.126,-1.613 l 98.438,-21.155 c 1.524,-0.328 3.986,-0.206 5.471,0.27 l 591.507,189.646 c 1.484,0.476 1.542,1.402 0.128,2.058 l -160.266,74.346 c -1.414,0.655 -1.413,1.727 0,2.381 l 425.696,196.496"
   fill="url(#SVGID_34_)" />
	</g><g
   id="g2291"
   clip-path="url(#SVGID_2_)"
   opacity="0.4">
		<linearGradient
   y2="1989.8831"
   x2="1974.7539"
   y1="1326.2178"
   x1="1115.8916"
   gradientUnits="userSpaceOnUse"
   id="SVGID_35_">
			<stop
   id="stop2277"
   style="stop-color:#5C77A2"
   offset="0" />
			<stop
   id="stop2279"
   style="stop-color:#173E7D"
   offset="1" />
		</linearGradient>
		<path
   inkscape:connector-curvature="0"
   style="fill:url(#SVGID_35_)"
   id="path2282"
   d="m 1682.78,1628.632 c 0,0 -451.926,-145.11 -575.03,-184.111 -9.47,3.537 0.024,0.368 -12.918,2.992 113.385,35.922 587.948,196.685 587.948,196.685 0.968,0.306 1.728,0.672 2.552,1.02 10.351,-5.5 9.48,-12.775 -2.552,-16.586 z"
   fill="url(#SVGID_35_)" />
		<linearGradient
   y2="1951.6321"
   x2="1929.6096"
   y1="1378.0439"
   x1="1187.3179"
   gradientUnits="userSpaceOnUse"
   id="SVGID_36_">
			<stop
   id="stop2284"
   style="stop-color:#5C77A2"
   offset="0" />
			<stop
   id="stop2286"
   style="stop-color:#173E7D"
   offset="1" />
		</linearGradient>
		<path
   inkscape:connector-curvature="0"
   style="fill:url(#SVGID_36_)"
   id="path2289"
   d="m 1562.155,1738.279 371.614,171.534 34.807,0.5 -406.421,-187.599 c -1.559,-0.721 -2.895,-1.503 -4.05,-2.327 -7.754,5.542 -6.417,13.061 4.05,17.892 z"
   fill="url(#SVGID_36_)" />
	</g><path
   inkscape:connector-curvature="0"
   id="path2293"
   d="m 0.003,2005.158 v -192.12 c 0,0 826.249,-122.214 1425,23.189 573.601,139.298 1424.999,63.416 1424.999,63.416 v 105.515 z"
   fill="#264F8C"
   clip-path="url(#SVGID_2_)" /><polygon
   id="polygon2301"
   points="120.849,1178.351 163.043,879.839 140.642,862.19 176.385,783.327 149.316,762.369 113.073,661.836 239.696,754.551 "
   clip-path="url(#SVGID_2_)"
   opacity="0.24" /><polygon
   id="polygon2303"
   points="687.109,1072.357 687.109,979.418 704.727,924.357 670.301,875.867 634.222,782.235 739.995,892.319 "
   clip-path="url(#SVGID_2_)"
   opacity="0.24" /><ellipse
   id="ellipse2305"
   ry="12.936"
   rx="12.869"
   cy="411.121"
   cx="1050.568"
   fill="#FFFFFF"
   clip-path="url(#SVGID_2_)"
   opacity="0.82" /><polygon
   style="fill:url(#SVGID_37_)"
   id="polygon2312"
   points="1058.993,401.358 1042.183,422.45 894.221,348.991 "
   fill="url(#SVGID_37_)"
   clip-path="url(#SVGID_2_)"
   opacity="0.16" /><ellipse
   id="ellipse2314"
   ry="17.238001"
   rx="17.150999"
   cy="399.616"
   cx="1184.155"
   fill="#FFFFFF"
   clip-path="url(#SVGID_2_)"
   opacity="0.82" /><polygon
   style="fill:url(#SVGID_38_)"
   id="polygon2321"
   points="1189.358,388.254 1172.549,409.347 813.939,249.41 "
   fill="url(#SVGID_38_)"
   clip-path="url(#SVGID_2_)"
   opacity="0.16" /><g
   id="g2347"
   clip-path="url(#SVGID_2_)"
   opacity="0.31">
		<path
   inkscape:connector-curvature="0"
   id="path2345"
   d="m 1975.985,1396.674 17.919,-0.03 c 24.291,24.408 18.351,46.862 -13.27,50.153 -1.979,0.205 -4.033,0.306 -6.138,0.328 -0.3,0.107 -0.494,0.281 -0.804,0.382 -1.749,-0.084 -3.625,-0.394 -5.438,-0.584 -13.938,-0.986 -30.11,-5.554 -46.364,-12.729 -2.318,0.815 -4.871,1.473 -8.02,1.698 -6.036,0.433 -13.02,-0.354 -20.491,-2.137 -21.724,-5.02 -48.464,-19.329 -66.888,-36.829 h 0.121 c -0.406,-0.376 -0.885,-0.727 -1.282,-1.104"
   fill="#36649F" />
	</g><g
   id="g2353"
   clip-path="url(#SVGID_2_)">
		<path
   inkscape:connector-curvature="0"
   id="path2349"
   d="m 1864.762,1358.501 c 5.672,-2.521 11.907,-3.943 18.471,-3.943 3.424,0 6.697,0.54 9.899,1.29 8.94,-9.692 20.578,-16.666 33.724,-19.444 1.648,-0.443 3.235,-1.039 4.93,-1.354 0.419,0.081 0.799,0.265 1.216,0.354 2.167,-0.233 4.364,-0.37 6.593,-0.37 8.188,0 15.988,1.644 23.195,4.524 -9.816,-6.251 -21.33,-9.919 -33.698,-9.919 -2.229,0 -4.426,0.137 -6.594,0.37 -0.415,-0.092 -0.796,-0.274 -1.215,-0.355 -1.694,0.315 -3.281,0.911 -4.929,1.355 -13.146,2.776 -24.784,9.752 -33.725,19.442 -3.202,-0.749 -6.476,-1.29 -9.899,-1.29 -6.562,0 -12.799,1.422 -18.47,3.944 -16.627,6.904 -28.402,23.684 -28.402,43.376 h 0.12 c -0.01,0.424 -0.12,0.816 -0.12,1.24 l 10.934,1.912 c 1.564,-17.816 12.562,-34.734 27.97,-41.132 z"
   fill="#3B6EB0" />
		<path
   inkscape:connector-curvature="0"
   id="path2351"
   d="m 1993.612,1396.482 c 0,-24.104 -12.355,-45.164 -30.823,-56.924 -7.207,-2.881 -15.008,-4.524 -23.195,-4.524 -2.229,0 -4.426,0.137 -6.593,0.37 -0.417,-0.09 -0.797,-0.273 -1.216,-0.354 -1.694,0.314 -3.281,0.91 -4.93,1.354 -13.146,2.778 -24.783,9.752 -33.724,19.444 -3.202,-0.75 -6.476,-1.29 -9.899,-1.29 -6.563,0 -12.799,1.422 -18.471,3.943 -15.408,6.398 -31.88,22.362 -33.445,40.179 0,0 38.926,7.473 83.828,7.473 44.902,-10e-4 78.468,-9.671 78.468,-9.671 z"
   fill="#346099" />
	</g><g
   id="g2357"
   clip-path="url(#SVGID_2_)"
   opacity="0.31">
		<path
   inkscape:connector-curvature="0"
   id="path2355"
   d="m 1388.63,1438.796 -16.476,-0.028 c -22.337,22.446 -16.875,43.095 12.202,46.12 1.819,0.189 3.709,0.282 5.645,0.303 0.276,0.099 0.455,0.258 0.739,0.351 1.608,-0.077 3.333,-0.361 5.001,-0.536 12.817,-0.908 27.688,-5.107 42.637,-11.706 2.13,0.75 4.478,1.354 7.373,1.562 5.551,0.397 11.973,-0.327 18.843,-1.966 19.977,-4.615 44.566,-17.773 61.509,-33.867 h -0.111 c 0.373,-0.346 0.814,-0.668 1.18,-1.015"
   fill="#36649F" />
	</g><g
   id="g2363"
   clip-path="url(#SVGID_2_)">
		<path
   inkscape:connector-curvature="0"
   id="path2359"
   d="m 1490.909,1403.693 c -5.215,-2.319 -10.949,-3.627 -16.984,-3.627 -3.148,0 -6.159,0.497 -9.104,1.187 -8.222,-8.913 -18.923,-15.326 -31.012,-17.88 -1.516,-0.408 -2.975,-0.956 -4.533,-1.245 -0.385,0.074 -0.734,0.242 -1.117,0.325 -1.993,-0.215 -4.014,-0.34 -6.064,-0.34 -7.529,0 -14.703,1.511 -21.33,4.16 9.028,-5.747 19.615,-9.121 30.988,-9.121 2.051,0 4.071,0.126 6.064,0.34 0.383,-0.083 0.732,-0.252 1.117,-0.326 1.559,0.29 3.018,0.837 4.532,1.246 12.09,2.554 22.791,8.967 31.013,17.879 2.944,-0.688 5.955,-1.187 9.104,-1.187 6.035,0 11.769,1.309 16.984,3.628 15.29,6.349 26.118,21.778 26.118,39.887 h -0.11 c 0.01,0.391 0.11,0.751 0.11,1.141 l -10.055,1.758 c -1.439,-16.384 -11.552,-31.942 -25.721,-37.825 z"
   fill="#3B6EB0" />
		<path
   inkscape:connector-curvature="0"
   id="path2361"
   d="m 1372.422,1438.619 c 0,-22.165 11.362,-41.531 28.343,-52.346 6.627,-2.649 13.801,-4.16 21.33,-4.16 2.05,0 4.071,0.125 6.064,0.34 0.383,-0.083 0.732,-0.251 1.117,-0.325 1.559,0.289 3.018,0.837 4.533,1.245 12.089,2.554 22.79,8.967 31.012,17.88 2.944,-0.689 5.955,-1.187 9.104,-1.187 6.035,0 11.77,1.308 16.984,3.627 14.169,5.883 29.316,20.563 30.756,36.947 0,0 -35.795,6.872 -77.085,6.872 -41.291,10e-4 -72.158,-8.893 -72.158,-8.893 z"
   fill="#346099" />
	</g><g
   id="g2367"
   clip-path="url(#SVGID_2_)"
   opacity="0.31">
		<path
   inkscape:connector-curvature="0"
   id="path2365"
   d="m 497.194,1623.853 -13.921,-0.023 c -18.874,18.964 -14.258,36.411 10.31,38.968 1.537,0.16 3.133,0.237 4.769,0.256 0.232,0.082 0.385,0.218 0.625,0.295 1.359,-0.064 2.816,-0.305 4.225,-0.452 10.83,-0.768 23.395,-4.315 36.024,-9.891 1.8,0.634 3.784,1.144 6.229,1.318 4.69,0.336 10.116,-0.275 15.921,-1.659 16.879,-3.9 37.655,-15.019 51.97,-28.615 l -0.094,-10e-4 c 0.315,-0.292 0.688,-0.563 0.996,-0.856"
   fill="#36649F" />
	</g><g
   id="g2373"
   clip-path="url(#SVGID_2_)">
		<path
   inkscape:connector-curvature="0"
   id="path2369"
   d="m 583.61,1594.193 c -4.407,-1.959 -9.251,-3.063 -14.351,-3.063 -2.66,0 -5.203,0.42 -7.691,1.002 -6.947,-7.53 -15.988,-12.948 -26.203,-15.106 -1.281,-0.346 -2.513,-0.808 -3.83,-1.052 -0.326,0.062 -0.621,0.204 -0.944,0.275 -1.684,-0.182 -3.391,-0.288 -5.123,-0.288 -6.361,0 -12.423,1.276 -18.022,3.516 7.627,-4.857 16.573,-7.707 26.182,-7.707 1.732,0 3.44,0.106 5.124,0.287 0.323,-0.07 0.619,-0.212 0.944,-0.275 1.316,0.245 2.55,0.708 3.83,1.053 10.215,2.157 19.256,7.576 26.203,15.105 2.488,-0.581 5.032,-1.001 7.691,-1.001 5.1,0 9.944,1.104 14.351,3.063 12.919,5.365 22.068,18.401 22.068,33.701 h -0.094 c 0.008,0.33 0.094,0.635 0.094,0.965 l -8.496,1.485 c -1.216,-13.843 -9.76,-26.988 -21.733,-31.96 z"
   fill="#3B6EB0" />
		<path
   inkscape:connector-curvature="0"
   id="path2371"
   d="m 483.5,1623.703 c 0,-18.727 9.6,-35.09 23.948,-44.227 5.599,-2.239 11.661,-3.516 18.022,-3.516 1.732,0 3.439,0.106 5.123,0.288 0.323,-0.071 0.619,-0.214 0.944,-0.275 1.316,0.244 2.549,0.706 3.83,1.052 10.215,2.158 19.255,7.576 26.203,15.106 2.488,-0.582 5.031,-1.002 7.691,-1.002 5.1,0 9.944,1.104 14.351,3.063 11.972,4.972 24.771,17.375 25.987,31.218 0,0 -30.244,5.806 -65.131,5.806 -34.889,0 -60.968,-7.513 -60.968,-7.513 z"
   fill="#346099" />
	</g><polygon
   id="polygon2451"
   points="2186.724,906.14 2193.476,967.742 2217.471,829.125 2222.352,789.777 2180.873,822.576 "
   clip-path="url(#SVGID_2_)"
   opacity="0.24" /><g
   id="g2485"
   clip-path="url(#SVGID_2_)"
   opacity="0.31">
		<path
   inkscape:connector-curvature="0"
   id="path2483"
   d="m 2739.679,1543.684 31.039,-0.052 c 42.079,42.282 31.789,81.181 -22.986,86.881 -3.427,0.356 -6.987,0.529 -10.632,0.569 -0.52,0.185 -0.857,0.485 -1.393,0.66 -3.031,-0.146 -6.278,-0.68 -9.422,-1.011 -24.145,-1.709 -52.16,-9.622 -80.318,-22.052 -4.014,1.413 -8.436,2.552 -13.891,2.942 -10.456,0.748 -22.555,-0.615 -35.496,-3.702 -37.633,-8.694 -83.955,-33.484 -115.87,-63.799 l 0.21,-10e-4 c -0.704,-0.651 -1.534,-1.258 -2.222,-1.91"
   fill="#36649F" />
	</g><g
   id="g2491"
   clip-path="url(#SVGID_2_)">
		<path
   inkscape:connector-curvature="0"
   id="path2487"
   d="m 2547.006,1477.557 c 9.824,-4.368 20.626,-6.831 31.994,-6.831 5.932,0 11.604,0.938 17.149,2.234 15.488,-16.79 35.647,-28.87 58.422,-33.682 2.854,-0.77 5.604,-1.801 8.538,-2.347 0.726,0.141 1.385,0.458 2.104,0.615 3.755,-0.404 7.562,-0.642 11.423,-0.642 14.184,0 27.697,2.847 40.182,7.839 -17.006,-10.829 -36.95,-17.184 -58.376,-17.184 -3.861,0 -7.667,0.237 -11.423,0.641 -0.72,-0.158 -1.379,-0.476 -2.104,-0.615 -2.936,0.546 -5.685,1.577 -8.539,2.348 -22.774,4.81 -42.934,16.893 -58.422,33.681 -5.547,-1.298 -11.218,-2.235 -17.147,-2.235 -11.369,0 -22.172,2.464 -31.996,6.834 -28.804,11.959 -49.203,41.026 -49.203,75.14 h 0.211 c -0.019,0.733 -0.211,1.414 -0.211,2.148 l 18.941,3.312 c 2.713,-30.865 21.764,-60.172 48.457,-71.256 z"
   fill="#3766A3" />
		<path
   inkscape:connector-curvature="0"
   id="path2489"
   d="m 2770.213,1543.353 c 0,-41.756 -21.404,-78.237 -53.395,-98.608 -12.484,-4.992 -25.998,-7.839 -40.182,-7.839 -3.861,0 -7.668,0.237 -11.423,0.642 -0.72,-0.157 -1.379,-0.475 -2.104,-0.615 -2.935,0.546 -5.685,1.577 -8.538,2.347 -22.774,4.812 -42.934,16.892 -58.422,33.682 -5.546,-1.297 -11.218,-2.234 -17.149,-2.234 -11.368,0 -22.17,2.463 -31.994,6.831 -26.692,11.084 -55.228,38.738 -57.939,69.604 0,0 67.432,12.944 145.215,12.944 77.783,0 135.931,-16.754 135.931,-16.754 z"
   fill="#2D5385" />
	</g>
<rect
   y="-206.58771"
   x="-420.82681"
   height="2387.2358"
   width="3435.4773"
   id="rect4565"
   style="opacity:0.77475728;mix-blend-mode:color;fill:url(#radialGradient4575);fill-opacity:1;stroke-width:5.226;paint-order:markers stroke fill" /><rect
   y="-403.32291"
   x="-518.55804"
   height="2583.9712"
   width="3533.2085"
   id="rect5741"
   style="opacity:0.774757;fill:#8d5fd3;fill-opacity:0;stroke-width:5.226;paint-order:markers stroke fill" /><rect
   y="-107.00407"
   x="-156.39052"
   height="2247.085"
   width="3070.1929"
   id="rect5743"
   style="opacity:0.34;fill:#1f1c24;fill-opacity:1;stroke-width:35.0174;paint-order:markers stroke fill" /></svg>
